<svg id="Layer_1" data-name="Layer 1" xmlns="http://www.w3.org/2000/svg" viewBox="0 0 389.47 389.47"><defs><style>.cls-1{fill:#011627;}.cls-2{fill:#f6f7f8;}.cls-3{fill:#f36;}.cls-4{fill:#0c6291;}</style></defs><circle class="cls-1" cx="194.74" cy="194.74" r="194.74"/><circle class="cls-2" cx="194.74" cy="195.24" r="161.39"/><polygon class="cls-1" points="194.74 54.97 204.01 74.72 224.74 77.88 209.74 93.26 213.28 114.97 194.74 104.72 176.2 114.97 179.74 93.26 164.74 77.88 185.47 74.72 194.74 54.97"/><polygon class="cls-3" points="260.19 102.47 264.05 110.69 272.69 112.01 266.44 118.42 267.91 127.47 260.19 123.19 252.46 127.47 253.94 118.42 247.69 112.01 256.32 110.69 260.19 102.47"/><polygon class="cls-4" points="129.29 102.47 133.15 110.69 141.79 112.01 135.54 118.42 137.01 127.47 129.29 123.19 121.56 127.47 123.04 118.42 116.79 112.01 125.42 110.69 129.29 102.47"/><path class="cls-3" d="M7319.36,7354.81a144.85,144.85,0,0,1-91.49-185.07,117.52,117.52,0,0,0,52,59.66,117.28,117.28,0,0,0,39.47,125.41Z" transform="translate(-7015.29 -6998.18)"/><path class="cls-4" d="M7100.7,7354.81a144.86,144.86,0,0,0,91.48-185.07,117.48,117.48,0,0,1-52,59.66,117.29,117.29,0,0,1-39.46,125.41Z" transform="translate(-7015.29 -6998.18)"/><circle class="cls-3" cx="260.19" cy="171.56" r="22.98"/><circle class="cls-4" cx="129.29" cy="171.56" r="22.98"/></svg>